<?xml version="1.0" encoding="UTF-8"?>
<svg width="28px" height="24px" viewBox="0 0 28 24" version="1.1" xmlns="http://www.w3.org/2000/svg" xmlns:xlink="http://www.w3.org/1999/xlink">
    <!-- Generator: Sketch 48.2 (47327) - http://www.bohemiancoding.com/sketch -->
    <title>Shape</title>
    <desc>Created with Sketch.</desc>
    <defs></defs>
    <g id="Page-1" class="case_svg" stroke="none" stroke-width="1" fill="none" fill-rule="evenodd">
        <path d="M26.32,4.22444444 L19.04,4.22444444 L19.04,2.28 C19.0382878,1.35287174 18.2871283,0.601712153 17.36,0.6 L10.64,0.6 C9.71287174,0.601712153 8.96171215,1.35287174 8.96,2.28 L8.96,4.24 L1.68,4.24 C0.758897069,4.24164596 0.010214105,4.98339668 0,5.90444444 L0,21.5844444 C0.00171215259,22.5115727 0.752871743,23.2627323 1.68,23.2644444 L26.32,23.2644444 C27.2471283,23.2627323 27.9982878,22.5115727 28,21.5844444 L28,5.90444444 C27.9982878,4.97731619 27.2471283,4.2261566 26.32,4.22444444 Z M10.08,2.28 C10.08,1.97072054 10.3307205,1.72 10.64,1.72 L17.36,1.72 C17.5085212,1.72 17.6509594,1.77899983 17.7559798,1.8840202 C17.8610002,1.98904057 17.92,2.13147877 17.92,2.28 L17.92,4.24 L10.08,4.24 L10.08,2.28 Z M26.88,21.6 C26.88,21.9092795 26.6292795,22.16 26.32,22.16 L1.68,22.16 C1.37072054,22.16 1.12,21.9092795 1.12,21.6 L1.12,14.2048889 C1.48711111,14.3355556 1.43111111,14.3044444 4.48,14.3044444 L4.48,15.4244444 C4.48171215,16.3515727 5.23287174,17.1027323 6.16,17.1044444 L7.56,17.1044444 C8.48712826,17.1027323 9.23828785,16.3515727 9.24,15.4244444 L9.24,14.3044444 L18.76,14.3044444 L18.76,15.4244444 C18.7617122,16.3515727 19.5128717,17.1027323 20.44,17.1044444 L21.84,17.1044444 C22.7671283,17.1027323 23.5182878,16.3515727 23.52,15.4244444 L23.52,14.3044444 C26.5657778,14.3044444 26.5128889,14.3355556 26.88,14.2048889 L26.88,21.6 Z M5.6,15.4244444 L5.6,12.0644444 C5.6,11.755165 5.85072054,11.5044444 6.16,11.5044444 L7.56,11.5044444 C7.70852123,11.5044444 7.85095943,11.5634443 7.9559798,11.6684646 C8.06100017,11.773485 8.12,11.9159232 8.12,12.0644444 L8.12,15.4244444 C8.12,15.7337239 7.86927946,15.9844444 7.56,15.9844444 L6.16,15.9844444 C5.85072054,15.9844444 5.6,15.7337239 5.6,15.4244444 Z M19.88,15.4244444 L19.88,12.0644444 C19.88,11.755165 20.1307205,11.5044444 20.44,11.5044444 L21.84,11.5044444 C22.1492795,11.5044444 22.4,11.755165 22.4,12.0644444 L22.4,15.4244444 C22.4,15.7337239 22.1492795,15.9844444 21.84,15.9844444 L20.44,15.9844444 C20.1307205,15.9844444 19.88,15.7337239 19.88,15.4244444 Z M26.88,11.6444444 L26.88,12.6244444 C26.88,12.9337239 26.6292795,13.1844444 26.32,13.1844444 L23.52,13.1844444 L23.52,12.0644444 C23.5182878,11.1373162 22.7671283,10.3861566 21.84,10.3844444 L20.44,10.3844444 C19.5128717,10.3861566 18.7617122,11.1373162 18.76,12.0644444 L18.76,13.1844444 L9.24,13.1844444 L9.24,12.0644444 C9.23828785,11.1373162 8.48712826,10.3861566 7.56,10.3844444 L6.16,10.3844444 C5.23287174,10.3861566 4.48171215,11.1373162 4.48,12.0644444 L4.48,13.1844444 L1.68,13.1844444 C1.37072054,13.1844444 1.12,12.9337239 1.12,12.6244444 L1.12,5.90444444 C1.12,5.59516498 1.37072054,5.34444444 1.68,5.34444444 L26.32,5.34444444 C26.6292795,5.34444444 26.88,5.59516498 26.88,5.90444444 L26.88,11.6444444 Z" id="Shape" fill="#b6b6b6" fill-rule="nonzero"></path>
    </g>
</svg>