<?xml version="1.0" encoding="UTF-8"?>
<svg width="252px" height="52px" viewBox="0 0 252 52" version="1.1" xmlns="http://www.w3.org/2000/svg" xmlns:xlink="http://www.w3.org/1999/xlink">
    <!-- Generator: Sketch 48.2 (47327) - http://www.bohemiancoding.com/sketch -->
    <title>Group 2</title>
    <desc>Created with Sketch.</desc>
    <defs></defs>
    <g id="🖥-1440-–-Landing---for-version-1.0" stroke="none" stroke-width="1" fill="none" fill-rule="evenodd" transform="translate(-135.000000, -17.000000)">
        <g id="Group-2" transform="translate(135.000000, 17.000000)">
            <path d="M27.9462135,22.6546789 C28.0336317,22.6204642 29.697645,18.9420061 33.2779575,15.1715486 C36.0623041,12.2389705 40.4562194,9.24632667 43.2697055,7.89294607 C38.7224249,3.03978407 32.2327731,0 25.023838,0 C20.6621294,0 16.564976,1.11387785 13,3.06715581 C20.2986537,7.32118079 25.7684265,14.3283469 27.9462135,22.6546789" id="Fill-1" fill="#177B72"></path>
            <path d="M28,22.7617328 C29.6954532,22.1230588 31.3333944,21.5779049 33.4575035,21.1232299 C35.5869805,20.6662738 37.8314813,20.4891178 39.957891,20.4891178 C43.3978742,20.4891178 46.7105643,21.0266684 49.8208122,22.0128115 C49.2104184,16.6266608 46.853194,11.7674162 43.3234921,8 C36.892119,11.0937672 31.1884642,16.4236537 28,22.7617328" id="Fill-3" fill="#18A68E"></path>
            <path d="M28.8633459,30.6621871 C28.8633459,28.0580699 28.5428124,25.5299854 27.9523561,23.1068258 C27.9101807,22.9334715 27.8726062,22.7593568 27.8281302,22.587523 C25.6503432,14.2611911 20.1805705,7.2547853 12.8819168,3 C5.20291716,7.20612443 0,15.3134825 0,24.6274782 C0,32.1440628 3.39167319,38.8721892 8.73568641,43.4006919 C12.6058593,46.6814994 17.501279,48.8035697 22.8805663,49.233154 C24.0024333,47.6699234 24.9885721,46.0063297 25.8167446,44.2522572 C27.767551,40.1244464 28.8633459,35.5214317 28.8633459,30.6621871" id="Fill-5" fill="#E2665B"></path>
            <path d="M49.9309433,24.3118098 C49.9309433,23.368245 49.8726645,22.4391264 49.7683761,21.5236937 C46.6581282,20.5367903 43.3454382,20 39.9054549,20 C35.8573783,20 31.9864386,20.743599 28.4145612,22.0901367 L27.947564,22.272615 L28.0717898,22.7911574 C28.6622462,25.2150773 28.9827796,27.7431618 28.9827796,30.3465187 C28.9827796,35.2057633 27.8869847,39.8095383 25.9361783,43.9373491 C25.1080058,45.689901 24.121867,47.3550153 23,48.9174856 C23.6686726,48.9714688 24.342713,49.0064438 25.0251885,49.0064438 C25.8855678,49.0064438 26.7352114,48.9631052 27.5733527,48.878709 C30.1935985,48.6148758 32.6919189,47.9427474 35.0085015,46.9360756 L44.4688389,51.6356517 L42.3815374,42.0137239 C47.0354068,37.5270391 49.9309433,31.2566291 49.9309433,24.3118098" id="Fill-7" fill="#B5564E"></path>
            <path d="M71.8331317,34.7129008 C71.8331317,36.9573837 73.090727,37.74128 74.4917189,37.74128 C75.4985619,37.74128 76.5046382,37.5633637 77.5107144,37.1360604 L77.5107144,40.4845369 C76.28916,41.0190462 74.6719231,41.2326978 73.1988496,41.2326978 C70.0004166,41.2326978 67.5573077,39.7006406 67.5573077,35.2109145 L67.5573077,26.6967819 L64,26.6967819 L64,23.1688684 L67.5573077,23.1688684 L67.5573077,19 L71.8331317,19 L71.8331317,23.1688684 L77.4746736,23.1688684 L77.4746736,26.6967819 L71.8331317,26.6967819 L71.8331317,34.7129008 Z" id="Fill-9" fill="#E2665B"></path>
            <path d="M91.6127607,34.5765553 L91.6127607,32.1898915 C89.6366491,32.2256268 88.055453,32.2970975 86.8338986,32.5464844 C85.6836589,32.7601361 83.6715065,33.5440324 83.6715065,35.4319223 C83.6715065,37.1426562 85.14458,37.7836112 86.5816127,37.7836112 C88.4150946,37.7836112 90.1396872,36.7503279 91.6127607,34.5765553 M79,35.8242506 C79,30.4791576 85.109306,29.9446483 91.6127607,29.8382026 L91.6127607,28.6627383 C91.6127607,25.9194815 89.7440048,25.3135015 87.7678931,25.3135015 C85.7917815,25.3135015 83.5994248,26.0973978 82.0182287,27.380068 L79.8266389,24.8861982 C81.9821879,22.9975479 84.8930609,22 88.0194122,22 C93.8764323,22 95.9246256,24.7789922 95.9246256,28.1289893 L95.9246256,40.3489517 L91.6127607,40.3489517 L91.6127607,37.4635138 C89.5285265,39.9923587 87.0854176,40.883461 85.14458,40.883461 C81.3717941,40.883461 79,39.0655211 79,35.8242506" id="Fill-11" fill="#E2665B"></path>
            <path d="M105.923026,30.8908172 L113.109723,22.4823699 L117.816503,22.4823699 L110.486409,30.8908172 L118.176145,40.2968123 L113.468597,40.2968123 L105.923026,30.8908172 Z M101,40.2968123 L105.275824,40.2968123 L105.275824,15 L101,15 L101,40.2968123 Z" id="Fill-13" fill="#E2665B"></path>
            <path d="M125.275824,29.0217833 L125.275824,35.648026 C126.317941,37.0021669 127.935178,37.8575339 129.695811,37.8575339 C132.71404,37.8575339 135.193957,35.3629037 135.193957,32.3345245 C135.193957,29.3418807 132.71404,26.8480108 129.695811,26.8480108 C127.935178,26.8480108 126.317941,27.7033777 125.275824,29.0217833 M125.275824,38.9257922 L125.275824,48.510464 L121,48.510464 L121,23.4280636 L125.275824,23.4280636 L125.275824,25.7789922 C126.641542,24.0332833 128.797091,23 131.168885,23 C136.415511,23 139.757341,27.3110494 139.757341,32.3345245 C139.757341,37.5366762 136.235307,41.776255 130.989448,41.776255 C128.76105,41.776255 126.56946,40.6715011 125.275824,38.9257922" id="Fill-15" fill="#E2665B"></path>
            <path d="M153.240967,26.0259271 C150.580846,26.0259271 148.209819,27.4158034 147.275824,30.2655059 L147.275824,40.277481 L143,40.277481 L143,22.4630386 L147.275824,22.4630386 L147.275824,25.8480108 C148.713624,23.4963219 150.76105,22 153.240967,22 L153.240967,26.0259271 Z" id="Fill-17" fill="#E2665B"></path>
            <path d="M166.611994,34.5765553 L166.611994,32.1898915 C164.636649,32.2256268 163.054686,32.2970975 161.833132,32.5464844 C160.683659,32.7601361 158.671506,33.5440324 158.671506,35.4319223 C158.671506,37.1426562 160.14458,37.7836112 161.580846,37.7836112 C163.414328,37.7836112 165.13892,36.7503279 166.611994,34.5765553 M154,35.8242506 C154,30.4791576 160.109306,29.9446483 166.611994,29.8382026 L166.611994,28.6627383 C166.611994,25.9194815 164.744005,25.3135015 162.767126,25.3135015 C160.791015,25.3135015 158.599425,26.0973978 157.017462,27.380068 L154.826639,24.8861982 C156.981421,22.9975479 159.893061,22 163.018645,22 C168.876432,22 170.923859,24.7789922 170.923859,28.1289893 L170.923859,40.3489517 L166.611994,40.3489517 L166.611994,37.4635138 C164.528527,39.9923587 162.084651,40.883461 160.14458,40.883461 C156.371794,40.883461 154,39.0655211 154,35.8242506" id="Fill-19" fill="#E2665B"></path>
            <path d="M183.594532,36.8575339 C185.499329,36.8575339 186.972402,36.3230246 188.553598,35.1468 L190.602558,38.2109145 C188.769077,39.9566234 186.433323,40.883461 183.415095,40.883461 C178.096387,40.883461 174,36.4652056 174,31.4417305 C174,26.4182554 178.096387,22 183.415095,22 C186.433323,22 188.769077,22.9260773 190.602558,24.6725465 L188.553598,27.7723964 C186.972402,26.5961718 185.499329,26.0259271 183.594532,26.0259271 C180.612344,26.0259271 178.132427,28.4133513 178.132427,31.4417305 C178.132427,34.5765553 180.468948,36.8575339 183.594532,36.8575339" id="Fill-21" fill="#E2665B"></path>
            <path d="M205.611994,34.5765553 L205.611994,32.1898915 C203.635882,32.2256268 202.054686,32.2970975 200.833132,32.5464844 C199.682892,32.7601361 197.671506,33.5440324 197.671506,35.4319223 C197.671506,37.1426562 199.143813,37.7836112 200.580846,37.7836112 C202.414328,37.7836112 204.138154,36.7503279 205.611994,34.5765553 M193,35.8242506 C193,30.4791576 199.108539,29.9446483 205.611994,29.8382026 L205.611994,28.6627383 C205.611994,25.9194815 203.743238,25.3135015 201.767126,25.3135015 C199.790248,25.3135015 197.599425,26.0973978 196.017462,27.380068 L193.825872,24.8861982 C195.981421,22.9975479 198.892294,22 202.018645,22 C207.875665,22 209.923859,24.7789922 209.923859,28.1289893 L209.923859,40.3489517 L205.611994,40.3489517 L205.611994,37.4635138 C203.52776,39.9923587 201.084651,40.883461 199.143813,40.883461 C195.371027,40.883461 193,39.0655211 193,35.8242506" id="Fill-23" fill="#E2665B"></path>
            <path d="M216.730669,36 C218.24055,36 219.497378,37.2476953 219.497378,38.7432569 C219.497378,40.2753141 218.24055,41.4515387 216.730669,41.4515387 C215.185514,41.4515387 214,40.2753141 214,38.7432569 C214,37.2476953 215.185514,36 216.730669,36" id="Fill-25" fill="#E2665B"></path>
            <path d="M228.275824,29.0217833 L228.275824,35.648026 C229.317941,37.0021669 230.935178,37.8575339 232.695811,37.8575339 C235.71404,37.8575339 238.193957,35.3629037 238.193957,32.3345245 C238.193957,29.3418807 235.71404,26.8480108 232.695811,26.8480108 C230.935178,26.8480108 229.317941,27.7033777 228.275824,29.0217833 M228.275824,38.9257922 L228.275824,48.510464 L224,48.510464 L224,23.4280636 L228.275824,23.4280636 L228.275824,25.7789922 C229.641542,24.0332833 231.797091,23 234.169652,23 C239.415511,23 242.757341,27.3110494 242.757341,32.3345245 C242.757341,37.5366762 239.236074,41.776255 233.989448,41.776255 C231.76105,41.776255 229.56946,40.6715011 228.275824,38.9257922" id="Fill-27" fill="#E2665B"></path>
            <polygon id="Fill-29" fill="#E2665B" points="247 40.2968123 251.275824 40.2968123 251.275824 15 247 15"></polygon>
        </g>
    </g>
</svg>